<svg xmlns="http://www.w3.org/2000/svg" fill="none" viewBox="0 0 130 26"><path fill="#fff" d="M112.98.36h3.61l4.18 17.3 4.16-17.3h3.19l-5.82 25.3h-3.08zm-1.46 0h3.44l.54 16.68v8.61h-3.98zm15.02 0h3.46v25.3h-3.96v-8.62zm-27.61 0 3.12 11.4 3.1-11.4h4.47l-5.5 16.1v9.2h-4.15v-9.2l-5.5-16.1zm-4.99 12.01v10.42q-.44.57-1.28 1.33a7.8 7.8 0 0 1-5.44 1.88 6.4 6.4 0 0 1-5.47-2.66 10 10 0 0 1-1.5-3.37 20 20 0 0 1-.52-4.8v-4.31q0-2.75.5-4.78.5-2.05 1.45-3.4.96-1.35 2.28-2.02a7 7 0 0 1 3-.66q2.3 0 3.79.96 1.48.95 2.25 2.83.77 1.87.92 4.6h-3.97a9 9 0 0 0-.44-2.5 2.4 2.4 0 0 0-.91-1.29q-.59-.4-1.54-.4a2.7 2.7 0 0 0-1.41.37q-.6.35-1.02 1.14a7 7 0 0 0-.6 2.05q-.2 1.26-.2 3.06v4.34q0 1.8.23 3.06t.66 2.07q.45.8 1.12 1.16.69.35 1.62.35.75 0 1.2-.2.44-.18.71-.4l.46-.34v-4.66h-2.93v-3.83zm-30.83-12.01h6.56q2.06 0 3.5.87a5.6 5.6 0 0 1 2.22 2.57q.77 1.71.77 4.2a12 12 0 0 1-.44 3.52q-.45 1.44-1.28 2.4a6 6 0 0 1-1.99 1.54l-1.25.92h-5.32l-.02-4.22h3.7q.84 0 1.4-.45.55-.48.82-1.3.28-.85.28-1.99 0-1.2-.25-2.05a2.6 2.6 0 0 0-.77-1.32q-.52-.46-1.37-.46h-2.44v21.06h-4.12zm9.29 25.3-3.75-11.28 4.31-.02 3.84 11.05v.24zm-12.71-4.21v4.2h-8.9v-4.2zm-7.62-21.09v25.3h-4.12v-25.3zm6.42 10.25v4.08h-7.7v-4.08zm1.17-10.25v4.23h-8.87v-4.23zm-20.09 16.38h-4.19v-4.22h4.2q.86 0 1.41-.48.57-.49.82-1.34.25-.87.25-1.95 0-1.09-.27-2.03a3.6 3.6 0 0 0-.8-1.54q-.53-.6-1.42-.6h-2.86v21.07h-4.1v-25.29h6.96a6 6 0 0 1 3.56 1.08q1.49 1.07 2.27 2.97.8 1.88.8 4.3 0 2.46-.8 4.26a6.3 6.3 0 0 1-2.27 2.78q-1.5 1-3.56 1m-14.22-16.39h4.1v17.37q0 2.92-.87 4.76a6 6 0 0 1-2.37 2.68 7 7 0 0 1-3.47.83 7 7 0 0 1-3.5-.83 5.7 5.7 0 0 1-2.4-2.68 11.5 11.5 0 0 1-.83-4.76v-17.37h4.1v17.37q0 1.65.3 2.54t.88 1.21q.6.32 1.45.32.87 0 1.43-.32.57-.33.87-1.21.3-.9.31-2.54zm-16.08 18.64q0-.68-.1-1.23-.09-.55-.42-1.03-.3-.46-.9-.93t-1.55-.98q-1.14-.59-2.21-1.25-1.06-.68-1.93-1.56a7 7 0 0 1-1.36-2.09 8 8 0 0 1-.5-2.84q0-1.6.47-2.9a6.4 6.4 0 0 1 3.39-3.67q1.18-.5 2.63-.5 1.96 0 3.4 1 1.44 1.02 2.23 2.77a10 10 0 0 1 .8 4.03h-4.1a6 6 0 0 0-.25-1.9 2.7 2.7 0 0 0-.78-1.3 2 2 0 0 0-1.37-.47q-.79 0-1.31.4-.5.38-.76 1.06-.24.66-.24 1.5 0 .62.24 1.12.25.49.69.89.43.38 1.03.75t1.32.7q1.38.69 2.46 1.5 1.05.8 1.78 1.8.72 1 1.08 2.25a10 10 0 0 1-.08 5.73 5.8 5.8 0 0 1-3.32 3.65q-1.19.5-2.64.5-1.42 0-2.68-.49a6.3 6.3 0 0 1-3.74-4.1q-.55-1.58-.55-3.73h4.12q0 1.15.18 1.96.18.8.56 1.29.38.47.93.71.56.23 1.28.23.8 0 1.3-.39.48-.38.7-1.02.2-.65.2-1.46"/></svg>