<svg xmlns="http://www.w3.org/2000/svg" xmlns:xlink="http://www.w3.org/1999/xlink"><symbol id="sprite-arrow" fill="none" viewBox="0 0 18 34"><path stroke="#102654" d="m1 1 16 16-16 16"/></symbol><use xlink:href="#sprite-arrow" width="18" height="34"/><view id="sprite-arrow-view" viewBox="0 0 18 34"/><symbol id="sprite-logo" fill="none" viewBox="0 0 410 404"><path fill="url(#a)" d="m399.64 59.53-184 329.02a10 10 0 0 1-17.41.07l-187.65-329.06a10 10 0 0 1 10.45-14.8l184.2 32.92a10 10 0 0 0 3.55 0l180.34-32.87a10 10 0 0 1 10.52 14.72"/><path fill="url(#b)" d="m292.96 1.57-136.16 26.69a5 5 0 0 0-4.03 4.6l-8.38 141.47a5 5 0 0 0 6.12 5.17l37.91-8.75a5 5 0 0 1 6.02 5.87l-11.26 55.15a5 5 0 0 0 6.35 5.79l23.42-7.11a5 5 0 0 1 6.35 5.8l-17.9 86.62c-1.12 5.42 6.09 8.38 9.1 3.73l2-3.1 110.95-221.43a5 5 0 0 0-5.41-7.15l-39.03 7.53a5 5 0 0 1-5.75-6.3l25.47-88.28a5 5 0 0 0-5.77-6.3"/><defs><linearGradient id="a" x1="6" x2="235" y1="33" y2="344" gradientUnits="userSpaceOnUse"><stop stop-color="#41D1FF"/><stop offset="1" stop-color="#BD34FE"/></linearGradient><linearGradient id="b" x1="194.651" x2="236.076" y1="8.818" y2="292.989" gradientUnits="userSpaceOnUse"><stop stop-color="#FFEA83"/><stop offset=".083" stop-color="#FFDD35"/><stop offset="1" stop-color="#FFA800"/></linearGradient></defs></symbol><use xlink:href="#sprite-logo" width="410" height="404" y="34"/><view id="sprite-logo-view" viewBox="0 34 410 404"/><symbol id="sprite-ok" fill="none" viewBox="0 0 22 22"><path fill="#030A1A" d="M11 3.33c1.32 0 2.4 1.05 2.4 2.35s-1.08 2.35-2.4 2.35a2.4 2.4 0 0 1-2.4-2.35c0-1.3 1.08-2.35 2.4-2.35m0 8.03c3.2 0 5.8-2.55 5.8-5.68s-2.6-5.68-5.8-5.68a5.74 5.74 0 0 0-5.79 5.68c0 3.13 2.6 5.68 5.79 5.68m2.34 4.63q1.78-.4 3.37-1.37a1.65 1.65 0 0 0 .53-2.3 1.7 1.7 0 0 0-2.34-.52 7.5 7.5 0 0 1-7.8 0 1.7 1.7 0 0 0-2.34.53c-.5.77-.26 1.8.53 2.29q1.59.96 3.37 1.37l-3.24 3.17c-.66.65-.66 1.7 0 2.35a1.7 1.7 0 0 0 2.4 0l3.18-3.12 3.18 3.12c.67.65 1.74.65 2.4 0s.66-1.7 0-2.35z"/></symbol><use xlink:href="#sprite-ok" width="22" height="22" y="438"/><view id="sprite-ok-view" viewBox="0 438 22 22"/><symbol id="sprite-play" fill="none" viewBox="0 0 22 22"><path fill="#102654" d="m17.5 11-13 7.5v-15z"/></symbol><use xlink:href="#sprite-play" width="22" height="22" y="460"/><view id="sprite-play-view" viewBox="0 460 22 22"/><symbol id="sprite-reddit" fill="none" viewBox="0 0 22 22"><path fill="#030A1A" d="M12.95.5a2.1 2.1 0 0 0-1.63.83c-.39.5-.6 1.1-.76 1.73a15 15 0 0 0-.34 3.16c-1.8.13-3.43.7-4.79 1.56a2.8 2.8 0 0 0-1.85-.75 2.4 2.4 0 0 0-1.92 1 3.8 3.8 0 0 0 .27 4.64q-.11.57-.12 1.18c0 4.23 4.11 7.65 9.19 7.65s9.2-3.43 9.2-7.65q-.01-.6-.13-1.18a3.8 3.8 0 0 0 .27-4.63 2.4 2.4 0 0 0-1.92-1.01c-.64 0-1.3.26-1.85.75a10 10 0 0 0-4.77-1.56c.03-.93.1-1.9.27-2.64q.17-.7.39-.98c.22-.28.25-.26.49-.26.52 0 .58.18.9.6.15.22.34.5.63.75.29.27.72.5 1.19.5v-1.85c-.13 0-.16 0-.24-.09q-.13-.14-.4-.51c-.35-.5-1.05-1.24-2.08-1.24m5.05.17c-1.2 0-2.19 1.16-2.19 2.6 0 1.42.98 2.58 2.2 2.58 1.2 0 2.18-1.16 2.18-2.59s-.98-2.59-2.19-2.59m0 .92c.78 0 1.41.75 1.41 1.67s-.63 1.67-1.4 1.67c-.79 0-1.42-.75-1.42-1.67s.64-1.67 1.41-1.67m-7 6.07c4.3 0 7.95 2.84 7.95 6.19s-3.64 6.18-7.95 6.18c-4.3 0-7.95-2.83-7.95-6.18s3.64-6.19 7.95-6.19m-7.4.84q.34 0 .66.17a8 8 0 0 0-1.82 2.42c-.3-.72-.21-1.6.15-2.07a1.2 1.2 0 0 1 1.02-.52Zm14.8 0q.6 0 1.01.52c.36.47.44 1.35.15 2.07a8 8 0 0 0-1.82-2.42q.33-.17.65-.17Zm-10.51 2.3c-.78 0-1.41.75-1.41 1.67s.63 1.67 1.4 1.67c.79 0 1.42-.75 1.42-1.67s-.63-1.67-1.41-1.67m6.22 0c-.78 0-1.4.75-1.4 1.67s.62 1.67 1.4 1.67 1.41-.75 1.41-1.67-.63-1.67-1.4-1.67Zm-6.98 5.67a4.3 4.3 0 0 0 3.87 2.38 4.3 4.3 0 0 0 3.9-2.38 6.6 6.6 0 0 1-3.9 1.15 6.5 6.5 0 0 1-3.87-1.15"/></symbol><use xlink:href="#sprite-reddit" width="22" height="22" y="482"/><view id="sprite-reddit-view" viewBox="0 482 22 22"/><symbol id="sprite-ruble" fill="none" viewBox="0 0 14 20"><path fill="#102654" fill-rule="evenodd" d="M1.87 13.49v-5.4h2.8v5.4h5.13v2.85h-5.13v3.66h-2.8v-3.66h-1.87v-2.85z" clip-rule="evenodd"/><path fill="#102654" fill-rule="evenodd" d="M8.63 2.86h-3.96v5.24h3.96a2.6 2.6 0 0 0 2.57-2.62 2.6 2.6 0 0 0-2.57-2.62m-6.76-2.86v10.95h6.76a5.4 5.4 0 0 0 5.37-5.47c0-3.03-2.4-5.48-5.37-5.48z" clip-rule="evenodd"/><path fill="#102654" d="M1.87 8.1h-1.87v2.85h1.87z"/></symbol><use xlink:href="#sprite-ruble" width="14" height="20" y="504"/><view id="sprite-ruble-view" viewBox="0 504 14 20"/><symbol id="sprite-user" fill="none" viewBox="0 0 18 20"><path stroke="#163152" stroke-linecap="square" stroke-linejoin="round" d="M15.67 19h-13.34c-.73 0-1.33-.55-1.33-1.23a4.9 4.9 0 0 1 3.43-4.58l.41-.14a12.8 12.8 0 0 1 8.32 0l.4.14a4.9 4.9 0 0 1 3.44 4.58c0 .68-.6 1.23-1.33 1.23Zm-8.7-9.6a4.8 4.8 0 0 0 4.06 0 4.2 4.2 0 0 0 2.32-2.8l.08-.31a4.1 4.1 0 0 0-.84-3.54l-.12-.14c-.82-1.01-2.1-1.61-3.47-1.61s-2.65.6-3.47 1.6l-.12.15a4.1 4.1 0 0 0-.84 3.54l.08.32a4.2 4.2 0 0 0 2.32 2.8Z"/></symbol><use xlink:href="#sprite-user" width="18" height="20" y="524"/><view id="sprite-user-view" viewBox="0 524 18 20"/><symbol id="sprite-vk" fill="none" viewBox="0 0 22 22"><path fill="#030A1A" d="M21.8 15.7c-.06-.1-.42-.85-2.18-2.41-1.84-1.64-1.6-1.37.62-4.2 1.35-1.72 1.9-2.77 1.73-3.22-.16-.43-1.16-.32-1.16-.32l-3.3.02s-.25-.03-.43.07a1 1 0 0 0-.3.34s-.52 1.33-1.22 2.47c-1.47 2.39-2.06 2.51-2.3 2.37-.56-.35-.42-1.4-.42-2.14 0-2.31.37-3.28-.72-3.53a6 6 0 0 0-1.54-.15c-1.18 0-2.18 0-2.74.27-.38.18-.67.57-.5.6.22.02.72.12.98.46.34.44.33 1.43.33 1.43s.2 2.73-.46 3.07c-.44.23-1.05-.24-2.37-2.41-.67-1.11-1.18-2.34-1.18-2.34s-.1-.23-.27-.35c-.21-.15-.51-.2-.51-.2l-3.14.02s-.47.01-.65.2c-.15.18-.01.54-.01.54s2.46 5.5 5.25 8.28c2.55 2.55 5.45 2.38 5.45 2.38h1.32s.4-.04.6-.25.18-.55.18-.55-.03-1.69.8-1.94c.8-.24 1.84 1.63 2.93 2.35.84.55 1.47.43 1.47.43l2.94-.04s1.53-.1.8-1.25"/></symbol><use xlink:href="#sprite-vk" width="22" height="22" y="544"/><view id="sprite-vk-view" viewBox="0 544 22 22"/></svg>